PathFileType	4	(X/Y/Z)	F:\MotionCapture\20160217\3\Generated_files\2_Test05-Dynamic.trc
DataRate	CameraRate	NumFrames	NumMarkers	Units	OrigDataRate	OrigDataStartFrame	OrigNumFrames
120.00	120.00	       5	39	mm	120.00	617	       704
Frame#	Time	Top.Head			Front.Head			Rear.Head			R.Shoulder			R.Offset			R.Elbow			R.Wrist			L.Shoulder			L.Elbow			L.Wrist			R.ASIS			L.ASIS			V.Sacral			R.Thigh			R.Knee			R.Shank			R.Ankle			R.Heel			R.Toe			L.Thigh			L.Knee			L.Shank			L.Ankle			L.Heel			L.Toe			R1			R2			R3			R4			R5			R6			R7			L1			L2			L3			L4			L5			L6			L7			V_Mid_ASIS			V_Pelvis_Origin			V_R.Hip_JC			V_L.Hip_JC			V_R.Knee_JC			V_L.Knee_JC			V_R.Ankle_JC			V_L.Ankle_JC			V_Mid_Hip			V_Mid_Shoulder			V_R.Hand			V_L.Hand			V_R.Toe_Offset_Static			V_L.Toe_Offset_Static			V_R.Toe_Offset			V_L.Toe_Offset			
		X1	Y1	Z1	X2	Y2	Z2	X3	Y3	Z3	X4	Y4	Z4	X5	Y5	Z5	X6	Y6	Z6	X7	Y7	Z7	X8	Y8	Z8	X9	Y9	Z9	X10	Y10	Z10	X11	Y11	Z11	X12	Y12	Z12	X13	Y13	Z13	X14	Y14	Z14	X15	Y15	Z15	X16	Y16	Z16	X17	Y17	Z17	X18	Y18	Z18	X19	Y19	Z19	X20	Y20	Z20	X21	Y21	Z21	X22	Y22	Z22	X23	Y23	Z23	X24	Y24	Z24	X25	Y25	Z25	X26	Y26	Z26	X27	Y27	Z27	X28	Y28	Z28	X29	Y29	Z29	X30	Y30	Z30	X31	Y31	Z31	X32	Y32	Z32	X33	Y33	Z33	X34	Y34	Z34	X35	Y35	Z35	X36	Y36	Z36	X37	Y37	Z37	X38	Y38	Z38	X39	Y39	Z39	

617	5.133	-2672.72925	237.89856	1728.95691	-2765.95728	148.27318	1676.93762				-2683.39185	413.68533	1433.53845	-2530.56763	167.29053	1270.66394	-2666.76318	542.71411	1119.64722	-2810.74341	547.68652	899.63959	-2658.81592	8.61604	1422.12915	-2646.90088	-87.43848	1098.72559	-2772.42773	-102.60931	871.83069	-2766.69165	364.50446	960.94568	-2748.07422	79.41708	954.95099	-2531.40820	228.78876	940.75983	-2800.00220	330.59909	576.65179	-2721.34375	383.11920	465.27737	-2715.82910	307.90244	232.58977	-2645.73730	382.94531	70.10678	-2582.86475	321.14276	46.04677	-2793.87012	365.23300	35.42069	-2883.35547	92.24604	664.05505	-2823.11084	46.30470	480.00531	-2787.20996	138.86082	348.94992	-2567.75757	142.64984	171.74278	-2525.44995	219.69731	189.40181	-2661.82251	119.25258	75.91185	-2841.83325	344.49268	34.22280	-2800.31226	326.98123	42.04021	-2701.30493	291.58234	50.06106	-2625.26831	292.11624	42.93249	-2615.17236	362.68723	47.05548	-2688.81616	390.62323	35.24257	-2754.07056	409.27475	33.14508	-2703.92163	125.86317	48.07011	-2683.23706	148.97964	69.57549	-2634.91333	210.99768	128.81683	-2565.84644	237.30769	170.34659	-2531.88184	173.62851	174.22389	-2574.56714	125.68677	123.57119	-2620.72827	101.56821	92.01646																																																	-2603.14941	292.45667	1634.10083	-2931.11401	290.01837	111.72058	
618	5.142	-2683.55884	236.50792	1729.58289	-2775.69971	145.69157	1677.08899				-2694.92676	412.42496	1434.92383	-2540.73853	167.49820	1271.60315	-2681.07129	543.41498	1120.88501	-2832.15894	546.47064	904.94159	-2667.89307	7.68572	1422.07703	-2652.09302	-89.22713	1099.19788	-2772.94604	-105.35962	870.42279	-2775.98218	364.46506	960.54810	-2758.23682	78.98640	955.25610	-2540.69312	227.89038	940.44971	-2804.18945	329.74231	575.29303	-2723.19312	382.48578	465.14554	-2715.61011	308.04449	232.34431	-2645.80859	382.39874	70.11511	-2582.86304	320.70566	46.14627	-2794.26636	365.74454	36.39481	-2895.93774	90.62379	668.06372	-2838.82788	44.27204	482.83743	-2808.81104	137.05975	349.79214	-2597.95361	142.16245	163.16977	-2555.33545	220.42557	177.54877	-2696.11987	116.36591	73.07228	-2841.94092	344.62500	34.18941	-2800.36304	327.03879	42.03086	-2701.40039	291.53931	49.97667	-2625.36035	291.29953	43.80127	-2615.01172	362.53821	47.24023	-2688.81201	390.55258	35.24704	-2753.97412	409.23419	33.15488	-2739.98584	122.38653	47.23228	-2718.65259	146.28836	67.28487	-2667.46094	209.84560	122.95181				-2562.03369	173.87560	163.43404	-2606.57373	125.03553	115.15865	-2654.46362	99.98529	87.13566																																																	-2613.93237	291.58524	1634.62036	-2941.88257	281.45831	121.96928	-2347.81616	273.17679	230.06798	
619	5.150	-2694.03809	234.43277	1729.68616	-2785.46338	143.13560	1676.94263				-2706.98853	411.57278	1435.53882	-2550.02173	166.77550	1271.76526	-2696.29370	543.25385	1121.42432	-2852.53418	543.81458	909.63196	-2676.97729	6.18522	1421.81860	-2656.66504	-90.74005	1099.21143	-2774.21948	-108.75845	868.36072	-2785.16162	364.24475	960.09399	-2767.82153	78.79042	955.64386	-2550.10815	227.06445	940.42279	-2808.43994	328.96991	573.50049	-2725.15601	381.73062	464.76682	-2716.59595	307.51175	232.38887	-2647.40112	381.18805	69.58520	-2582.56909	319.74542	46.32900	-2793.85669	365.25092	35.55355	-2907.87134	89.18392	671.45917	-2853.69873	42.70572	485.09241	-2830.03809	135.00731	350.46402	-2627.78052	141.52786	153.80676	-2585.76416	220.51810	165.66591	-2730.86719	112.57151	69.06384	-2842.06592	344.76773	34.20868	-2799.92383	327.84326	41.62122	-2701.36694	291.41586	49.95748	-2625.08569	290.99521	43.74630	-2615.08594	362.37531	47.24344	-2688.81128	390.38190	35.36288	-2753.94116	409.36441	33.10772	-2776.36914	118.77927	47.09501	-2753.96265	143.13116	65.34007	-2700.15283	207.21428	116.76808				-2592.39941	173.28011	152.03232	-2639.31543	123.80795	107.24488	-2688.36890	97.69135	81.83528																																																	-2625.34326	290.89462	1635.27869	
620	5.158	-2704.62524	232.59592	1729.21912	-2795.53174	140.30217	1676.76367				-2717.84302	410.22260	1435.30310	-2560.10791	166.79465	1271.55518	-2711.45410	544.41412	1122.88904	-2872.48267	540.82343	914.35541	-2686.09619	4.81113	1421.35339	-2661.64893	-92.34587	1099.55261	-2775.61133	-112.26543	866.92841	-2794.20898	364.09512	959.23627	-2777.64453	78.37087	955.33960				-2813.03784	328.27972	571.66357	-2727.03516	380.96304	464.59445	-2718.30908	308.07623	231.85139	-2645.72314	381.68933	70.50002	-2583.05688	319.67337	46.36543	-2794.37183	364.20865	36.96983	-2919.64746	87.58125	674.56317	-2867.74854	41.26080	486.92365	-2850.89380	132.71910	350.98605	-2658.78394	139.86520	144.58180	-2616.57886	219.15738	153.43309	-2765.48169	109.70493	65.93781	-2841.69067	345.74722	33.66973	-2800.40454	327.23502	42.04247	-2701.85205	291.35806	49.86646	-2624.93042	290.76407	43.52533	-2614.97485	361.97256	47.36322	-2688.78711	390.21863	35.42577	-2753.89526	409.31073	32.98512	-2812.67236	114.72755	47.24730	-2789.70898	139.37561	63.78149	-2733.73315	204.28281	111.87225				-2624.43164	172.66676	140.61101	-2672.46704	121.85603	99.00620	-2722.58643	95.09827	76.87878																																																	-2636.81421	290.70911	1635.14294	-4073.29834	-504.95428	663.01483	-2745.10425	85.79004	213.62500	
621	5.167	-2715.70679	230.86450	1728.91370	-2805.49683	137.62317	1675.75256				-2728.85132	408.37860	1435.51050	-2570.21631	166.06537	1271.11621	-2725.77490	543.89050	1122.81445	-2892.32056	538.42963	918.87732	-2695.23413	3.38739	1420.46387	-2666.92920	-93.52574	1099.26807	-2775.54541	-114.89933	864.86945	-2803.21167	363.54642	958.22845	-2787.24561	77.64321	954.98877				-2818.00439	327.77045	569.67725	-2729.16089	380.19626	464.35403	-2716.11401	308.16821	231.22997	-2645.15381	381.25470	68.86366	-2583.01440	319.09036	46.51651	-2793.99634	366.04645	36.23266	-2931.05737	85.72906	677.05621	-2881.35962	39.55885	488.48849	-2871.41528	130.17451	351.36594	-2690.11108	137.59154	135.33357	-2648.06372	216.89958	141.93297	-2801.02100	105.42836	64.27955	-2841.74316	345.91785	33.63264	-2800.40356	327.33279	42.02105	-2701.62769	291.99414	49.29715	-2621.54834	289.57324	44.75516	-2615.22388	361.62595	47.50707	-2688.65186	390.14828	35.40107	-2753.72217	409.31967	33.03574	-2848.84204	110.37175	47.73875	-2825.30640	135.38545	62.42280	-2768.49731	203.26492	107.05398	-2693.16992	233.04448	130.10353	-2656.14209	171.38469	128.88524	-2706.48828	118.72287	91.04074	-2756.94897	91.88608	71.71499																																																	-2648.45605	288.92813	1635.00745	-4074.01343	-502.73907	663.63965	-2546.38232	382.25171	867.21039	
